<?xml version="1.0" encoding="utf-8"?>
<!-- Generator: Adobe Illustrator 21.0.0, SVG Export Plug-In . SVG Version: 6.00 Build 0)  -->
<svg version="1.1" id="Layer_1" xmlns="http://www.w3.org/2000/svg" xmlns:xlink="http://www.w3.org/1999/xlink" x="0px" y="0px"
	 viewBox="0 0 430 133" style="enable-background:new 0 0 430 133;" xml:space="preserve">
<style type="text/css">
	.st0{fill:#FFFFFF;}
	.st1{fill:url(#SVGID_1_);}
</style>
<g>
	<path class="st0" d="M407,60.3c0-2.5,2-4.5,4.5-4.5c2.5,0,4.5,2,4.5,4.5c0,2.5-2,4.5-4.5,4.5C409,64.8,407,62.8,407,60.3z
		 M415.3,60.3c0-2.2-1.6-3.8-3.8-3.8c-2.2,0-3.8,1.6-3.8,3.8c0,2.2,1.6,3.8,3.8,3.8C413.7,64.2,415.3,62.6,415.3,60.3z M409.9,57.6
		h1.8c1.1,0,1.7,0.7,1.7,1.5c0,0.8-0.5,1.3-1.4,1.4c0.2,0.2,0.4,0.4,0.6,0.7l1.3,1.8h-0.9l-1.3-1.9c-0.3-0.4-0.4-0.5-0.9-0.5V63
		h-0.8V57.6z M411.2,59.9c0.6,0,1.3-0.1,1.3-0.9c0-0.5-0.3-0.9-1-0.9h-0.8v1.7H411.2z"/>
</g>
<path class="st0" d="M211.4,93.5h-7.3c-0.6,0-1.2-0.5-1.3-1.1L199.6,80h-15.8l-3.2,12.3c-0.1,0.6-0.7,1.1-1.3,1.1H172
	c-0.7,0-1.2-0.5-1.2-1.1c0-0.1,0.1-0.2,0.1-0.3l11.3-40.7c1.7-6,6.6-6.6,9.6-6.6c3,0,7.9,0.6,9.6,6.6L212.5,92
	c0,0.1,0.1,0.3,0.1,0.3C212.6,93,212,93.5,211.4,93.5z M192.8,53.4c-0.2-0.8-0.4-1-1.1-1c-0.7,0-0.9,0.3-1.1,1l-5,19.3h12.1
	L192.8,53.4z M246.6,57.9c0-0.6-0.5-1-1.1-1h-6.9c-0.6,0-1.2,0.5-1.5,1.3l-6.6,27.2c-0.3,1.2-0.8,1.6-1.3,1.6c-0.5,0-1-0.4-1.3-1.6
	l-6.6-27.2c-0.2-0.8-0.8-1.3-1.4-1.3h-6.9c-0.6,0-1.1,0.5-1.1,1c0,0.1,0,0.3,0.1,0.5l8.7,29.5c1.4,4.8,5,6.1,8.5,6.1
	c3.5,0,7.2-1.3,8.6-6.1l8.7-29.5C246.6,58.2,246.6,58,246.6,57.9z M278.2,93.5h-5.8c-0.8,0-1.4-0.6-1.4-1.3v-1
	c-3.2,1.8-6.4,2.9-9.7,2.9c-5.7,0-11.9-2.1-11.9-10.8v-0.3c0-7.4,4.8-11.2,16.8-11.2h4.3v-2.9c0-4.2-2-5.3-6.1-5.3
	c-4.4,0-8.9,0.3-11.2,0.5c-0.1,0-0.3,0-0.3,0c-0.7,0-1.2-0.2-1.2-1.1v-4.2c0-0.7,0.4-1.2,1.3-1.4c2.8-0.5,6.7-1,11.5-1
	c9.8,0,15.1,4.1,15.1,12.4v23.4C279.6,92.9,279,93.5,278.2,93.5z M270.5,77.4h-4.3c-6.3,0-7.6,1.9-7.6,5.5v0.3c0,3.2,1.5,4,5,4
	c2.5,0,5-0.8,7-1.8V77.4z M297.7,50.7V45c0-0.7-0.6-1.3-1.4-1.3h-6.7c-0.8,0-1.4,0.6-1.4,1.3v5.7c0,0.7,0.7,1.3,1.4,1.3h6.7
	C297.1,52,297.7,51.4,297.7,50.7z M297.5,92.1V58.2c0-0.7-0.6-1.3-1.4-1.3h-6.3c-0.8,0-1.4,0.6-1.4,1.3v33.9c0,0.7,0.6,1.4,1.4,1.4
	h6.3C296.9,93.5,297.5,92.8,297.5,92.1z M315.7,92.1V45.4c0-0.7-0.5-1.3-1.3-1.3H308c-0.8,0-1.4,0.6-1.4,1.3v46.7
	c0,0.7,0.6,1.4,1.4,1.4h6.4C315.2,93.5,315.7,92.8,315.7,92.1z M334.2,50.7V45c0-0.7-0.6-1.3-1.4-1.3h-6.7c-0.8,0-1.4,0.6-1.4,1.3
	v5.7c0,0.7,0.7,1.3,1.4,1.3h6.7C333.5,52,334.2,51.4,334.2,50.7z M334,92.1V58.2c0-0.7-0.6-1.3-1.4-1.3h-6.3c-0.8,0-1.4,0.6-1.4,1.3
	v33.9c0,0.7,0.6,1.4,1.4,1.4h6.3C333.3,93.5,334,92.8,334,92.1z M362.5,87.3h-3.6c-2.5,0-2.7-0.4-2.7-3.6V63.3h6.2
	c0.8,0,1.4-0.6,1.4-1.3v-3.8c0-0.7-0.6-1.3-1.4-1.3h-6.2v-8.6c0-0.6-0.5-1-1.1-1c-0.1,0-0.2,0-0.3,0l-6.2,1
	c-0.8,0.1-1.4,0.6-1.4,1.3v7.2h0H341c-0.8,0-1.4,0.6-1.4,1.3V62c0,0.7,0.6,1.3,1.4,1.3h6.2h0v20.4c0,8.7,2.9,10.3,10.7,10.3
	c1.5,0,3-0.2,4.7-0.5c0.9-0.1,1.3-0.5,1.3-1.2v-4.1C363.9,87.6,363.4,87.3,362.5,87.3z M402.2,58c0-0.6-0.5-1.1-1.2-1.1h-7
	c-0.7,0-1.2,0.5-1.4,1.1l-7.4,27.9c0,0,0,0-0.2,0c-0.1,0-0.2,0-0.3,0h-0.1c-0.4,0-0.7-0.3-1-1.4L376.6,58c-0.1-0.6-0.7-1.2-1.3-1.2
	h-6.9c-0.9,0-1.3,0.4-1.3,1c0,0.1,0,0.3,0.1,0.5l9,29.7c1.5,4.9,4,5.4,6,5.4h1l-0.5,1.9c-1,3.4-2.5,4.2-5.4,4.2
	c-1.9,0-5.8-0.3-7.8-0.4c-0.1,0-0.1,0-0.1,0c-0.8,0-1.4,0.5-1.4,1.2v4.1c0,0.7,0.7,0.9,1.4,1.1c1.6,0.5,5,0.8,7.3,0.8
	c9.4,0,11.9-3.1,14-10.2l11.5-37.9C402.2,58.2,402.2,58.1,402.2,58z"/>
<linearGradient id="SVGID_1_" gradientUnits="userSpaceOnUse" x1="14.6932" y1="65.6365" x2="147.1455" y2="65.6365">
	<stop  offset="0" style="stop-color:#FF671F"/>
	<stop  offset="1" style="stop-color:#FFD300"/>
</linearGradient>
<path class="st1" d="M68.9,60L60,71.8l-6.7,8.8c-3.1,4.1-7.3,6.3-11.9,6.3h-8.9c-7.3,0-13.2-2.8-16-7.8c-2.8-4.9-2.4-11.4,1.3-17.7
	l27.5-47.6c3.7-6.3,9-10,14.7-10c5.7,0,11.1,3.6,14.7,10l25.4,43.9l-5.9,7.8L66.9,18.3c-2-3.5-4.5-5.5-6.9-5.5c-2.4,0-4.9,2-6.9,5.5
	L25.6,65.9c-2,3.5-2.5,6.7-1.3,8.8c1.2,2.1,4.2,3.3,8.2,3.3h8.9c1.7,0,3.3-0.9,4.7-2.8l4.9-6.5l0,0l12.4-16.5h0l3.8-5H52.7l5.7,7.6
	l-5.6,7.5l-9.4-12.4l-0.1-0.2c-1.5-2.7-1.7-5.5-0.3-7.8c1.3-2.3,3.9-3.6,6.9-3.6h20.2c3.1,0,5.6,1.3,6.9,3.6
	c1.3,2.3,1.2,5.2-0.3,7.8l-0.1,0.2L68.9,60L68.9,60z M145.3,52.1c-2.9-4.9-8.7-7.8-16-7.8h-8.9c-4.6,0-8.8,2.2-11.9,6.3l-6.7,8.8
	l-8.9,11.8l0,0l-7.6,10.1l-0.1,0.2c-1.5,2.7-1.7,5.5-0.3,7.8c1.3,2.3,3.9,3.6,6.9,3.6h20.2c3.1,0,5.6-1.3,6.9-3.6
	c1.3-2.3,1.2-5.1-0.3-7.8l-0.1-0.3L109,69.1l-5.6,7.5l5.7,7.6H94.5l3.8-5l0,0l12.4-16.5l0,0l4.9-6.5c1.4-1.8,3-2.8,4.7-2.8h8.9
	c4,0,7,1.2,8.2,3.3c1.2,2.1,0.7,5.3-1.3,8.7l-27.5,47.6c-2,3.5-4.5,5.5-6.9,5.5c-2.4,0-4.9-2-6.9-5.5L67.6,65.7l-5.9,7.8l25.4,43.9
	c3.7,6.3,9,10,14.7,10c5.7,0,11.1-3.6,14.7-10L144,69.9C147.7,63.5,148.1,57.1,145.3,52.1z"/>
</svg>
