<?xml version="1.0" encoding="utf-8"?>
<!-- Generator: Adobe Illustrator 21.0.0, SVG Export Plug-In . SVG Version: 6.00 Build 0)  -->
<svg version="1.1" id="Layer_1" xmlns="http://www.w3.org/2000/svg" xmlns:xlink="http://www.w3.org/1999/xlink" x="0px" y="0px"
	 viewBox="0 0 612 792" style="enable-background:new 0 0 612 792;" xml:space="preserve">
<style type="text/css">
	.st0{fill:#FFFFFF;}
	.st1{fill:url(#SVGID_1_);}
</style>
<g>
	<path class="st0" d="M495,254.3c0-2.5,2-4.5,4.5-4.5c2.5,0,4.5,2,4.5,4.5c0,2.5-2,4.5-4.5,4.5C497,258.8,495,256.8,495,254.3z
		 M503.3,254.3c0-2.2-1.6-3.8-3.8-3.8c-2.2,0-3.8,1.6-3.8,3.8c0,2.2,1.6,3.8,3.8,3.8C501.7,258.2,503.3,256.6,503.3,254.3z
		 M497.9,251.6h1.8c1.1,0,1.7,0.7,1.7,1.5c0,0.8-0.5,1.3-1.4,1.4c0.2,0.2,0.4,0.4,0.6,0.7l1.3,1.8h-0.9l-1.3-1.9
		c-0.3-0.4-0.4-0.5-0.9-0.5v2.4h-0.8V251.6z M499.2,253.9c0.6,0,1.3-0.1,1.3-0.9c0-0.5-0.3-0.9-1-0.9h-0.8v1.7H499.2z"/>
</g>
<path class="st0" d="M299.4,287.5h-7.3c-0.6,0-1.2-0.5-1.3-1.1l-3.2-12.3h-15.8l-3.2,12.3c-0.1,0.6-0.7,1.1-1.3,1.1H260
	c-0.7,0-1.2-0.5-1.2-1.1c0-0.1,0.1-0.2,0.1-0.3l11.3-40.7c1.7-6,6.6-6.6,9.6-6.6c3,0,7.9,0.6,9.6,6.6l11.3,40.7
	c0,0.1,0.1,0.3,0.1,0.3C300.6,287,300,287.5,299.4,287.5z M280.8,247.4c-0.2-0.8-0.4-1-1.1-1c-0.7,0-0.9,0.3-1.1,1l-5,19.3h12.1
	L280.8,247.4z M334.6,251.9c0-0.6-0.5-1-1.1-1h-6.9c-0.6,0-1.2,0.5-1.5,1.3l-6.6,27.2c-0.3,1.2-0.8,1.6-1.3,1.6
	c-0.5,0-1-0.4-1.3-1.6l-6.6-27.2c-0.2-0.8-0.8-1.3-1.4-1.3h-6.9c-0.6,0-1.1,0.5-1.1,1c0,0.1,0,0.3,0.1,0.5l8.7,29.5
	c1.4,4.8,5,6.1,8.5,6.1c3.5,0,7.2-1.3,8.6-6.1l8.7-29.5C334.6,252.2,334.6,252,334.6,251.9z M366.2,287.5h-5.8
	c-0.8,0-1.4-0.6-1.4-1.3v-1c-3.2,1.8-6.4,2.9-9.7,2.9c-5.7,0-11.9-2.1-11.9-10.8v-0.3c0-7.4,4.8-11.2,16.8-11.2h4.3v-2.9
	c0-4.2-2-5.3-6.1-5.3c-4.4,0-8.9,0.3-11.2,0.5c-0.1,0-0.3,0-0.3,0c-0.7,0-1.2-0.2-1.2-1.1v-4.2c0-0.7,0.4-1.2,1.3-1.4
	c2.8-0.5,6.7-1,11.5-1c9.8,0,15.1,4.1,15.1,12.4v23.4C367.6,286.9,367,287.5,366.2,287.5z M358.5,271.4h-4.3c-6.3,0-7.6,1.9-7.6,5.5
	v0.3c0,3.2,1.5,4,5,4c2.5,0,5-0.8,7-1.8V271.4z M385.7,244.7V239c0-0.7-0.6-1.3-1.4-1.3h-6.7c-0.8,0-1.4,0.6-1.4,1.3v5.7
	c0,0.7,0.7,1.3,1.4,1.3h6.7C385.1,246,385.7,245.4,385.7,244.7z M385.5,286.1v-33.9c0-0.7-0.6-1.3-1.4-1.3h-6.3
	c-0.8,0-1.4,0.6-1.4,1.3v33.9c0,0.7,0.6,1.4,1.4,1.4h6.3C384.9,287.5,385.5,286.8,385.5,286.1z M403.7,286.1v-46.7
	c0-0.7-0.5-1.3-1.3-1.3H396c-0.8,0-1.4,0.6-1.4,1.3v46.7c0,0.7,0.6,1.4,1.4,1.4h6.4C403.2,287.5,403.7,286.8,403.7,286.1z
	 M422.2,244.7V239c0-0.7-0.6-1.3-1.4-1.3h-6.7c-0.8,0-1.4,0.6-1.4,1.3v5.7c0,0.7,0.7,1.3,1.4,1.3h6.7
	C421.5,246,422.2,245.4,422.2,244.7z M422,286.1v-33.9c0-0.7-0.6-1.3-1.4-1.3h-6.3c-0.8,0-1.4,0.6-1.4,1.3v33.9
	c0,0.7,0.6,1.4,1.4,1.4h6.3C421.3,287.5,422,286.8,422,286.1z M450.5,281.3h-3.6c-2.5,0-2.7-0.4-2.7-3.6v-20.4h6.2
	c0.8,0,1.4-0.6,1.4-1.3v-3.8c0-0.7-0.6-1.3-1.4-1.3h-6.2v-8.6c0-0.6-0.5-1-1.1-1c-0.1,0-0.2,0-0.3,0l-6.2,1
	c-0.8,0.1-1.4,0.6-1.4,1.3v7.2h0H429c-0.8,0-1.4,0.6-1.4,1.3v3.8c0,0.7,0.6,1.3,1.4,1.3h6.2h0v20.4c0,8.7,2.9,10.3,10.7,10.3
	c1.5,0,3-0.2,4.7-0.5c0.9-0.1,1.3-0.5,1.3-1.2v-4.1C451.9,281.6,451.4,281.3,450.5,281.3z M490.2,252c0-0.6-0.5-1.1-1.2-1.1h-7
	c-0.7,0-1.2,0.5-1.4,1.1l-7.4,27.9c0,0,0,0-0.2,0c-0.1,0-0.2,0-0.3,0h-0.1c-0.4,0-0.7-0.3-1-1.4l-6.9-26.4c-0.1-0.6-0.7-1.2-1.3-1.2
	h-6.9c-0.9,0-1.3,0.4-1.3,1c0,0.1,0,0.3,0.1,0.5l9,29.7c1.5,4.9,4,5.4,6,5.4h1l-0.5,1.9c-1,3.4-2.5,4.2-5.4,4.2
	c-1.9,0-5.8-0.3-7.8-0.4c-0.1,0-0.1,0-0.1,0c-0.8,0-1.4,0.5-1.4,1.2v4.1c0,0.7,0.7,0.9,1.4,1.1c1.6,0.5,5,0.8,7.3,0.8
	c9.4,0,11.9-3.1,14-10.2l11.5-37.9C490.2,252.2,490.2,252.1,490.2,252z"/>
<linearGradient id="SVGID_1_" gradientUnits="userSpaceOnUse" x1="102.6932" y1="259.6365" x2="235.1455" y2="259.6365">
	<stop  offset="0" style="stop-color:#FF671F"/>
	<stop  offset="1" style="stop-color:#FFD300"/>
</linearGradient>
<path class="st1" d="M156.9,254l-8.9,11.8l-6.7,8.8c-3.1,4.1-7.3,6.3-11.9,6.3h-8.9c-7.3,0-13.2-2.8-16-7.8
	c-2.8-4.9-2.4-11.4,1.3-17.7l27.5-47.6c3.7-6.3,9-10,14.7-10c5.7,0,11.1,3.6,14.7,10l25.4,43.9l-5.9,7.8l-27.3-47.2
	c-2-3.5-4.5-5.5-6.9-5.5c-2.4,0-4.9,2-6.9,5.5l-27.5,47.5c-2,3.5-2.5,6.7-1.3,8.8c1.2,2.1,4.2,3.3,8.2,3.3h8.9
	c1.7,0,3.3-0.9,4.7-2.8l4.9-6.5l0,0l12.4-16.5h0l3.8-5h-14.6l5.7,7.6l-5.6,7.5l-9.4-12.4l-0.1-0.2c-1.5-2.7-1.7-5.5-0.3-7.8
	c1.3-2.3,3.9-3.6,6.9-3.6h20.2c3.1,0,5.6,1.3,6.9,3.6c1.3,2.3,1.2,5.2-0.3,7.8l-0.1,0.2L156.9,254L156.9,254z M233.3,246.1
	c-2.9-4.9-8.7-7.8-16-7.8h-8.9c-4.6,0-8.8,2.2-11.9,6.3l-6.7,8.8l-8.9,11.8l0,0l-7.6,10.1l-0.1,0.2c-1.5,2.7-1.7,5.5-0.3,7.8
	c1.3,2.3,3.9,3.6,6.9,3.6h20.2c3.1,0,5.6-1.3,6.9-3.6c1.3-2.3,1.2-5.1-0.3-7.8l-0.1-0.3l-9.4-12.3l-5.6,7.5l5.7,7.6h-14.6l3.8-5l0,0
	l12.4-16.5l0,0l4.9-6.5c1.4-1.8,3-2.8,4.7-2.8h8.9c4,0,7,1.2,8.2,3.3c1.2,2.1,0.7,5.3-1.3,8.7l-27.5,47.6c-2,3.5-4.5,5.5-6.9,5.5
	c-2.4,0-4.9-2-6.9-5.5l-27.3-47.2l-5.9,7.8l25.4,43.9c3.7,6.3,9,10,14.7,10c5.7,0,11.1-3.6,14.7-10l27.5-47.6
	C235.7,257.5,236.1,251.1,233.3,246.1z"/>
</svg>
